<?xml version="1.0" encoding="utf-8"?>
<!-- Generator: Adobe Illustrator 19.0.0, SVG Export Plug-In . SVG Version: 6.00 Build 0)  -->
<svg fill="#fff" version="1.1" id="invoice" xmlns="http://www.w3.org/2000/svg" xmlns:xlink="http://www.w3.org/1999/xlink" x="0px" y="0px"
	 viewBox="-4 5 56 56" style="enable-background:new -4 5 56 56;" xml:space="preserve">
<g id="XMLID_728_">
	<g id="Laptop_4_">
		<g id="XMLID_192_">
			<path id="XMLID_193_" class="st0" d="M38.5,17.8h-29c-2.2,0-4,1.8-4,4V39c0,2.2,1.8,4,4,4h29c2.2,0,4-1.8,4-4V21.8
				C42.5,19.6,40.7,17.8,38.5,17.8z M39.8,38.9c0,0.7-0.6,1.3-1.3,1.3h-29c-0.7,0-1.3-0.6-1.3-1.3V21.8c0-0.7,0.6-1.3,1.3-1.3h29
				c0.7,0,1.3,0.6,1.3,1.3V38.9z M40.6,44.3H29.3c0,0.7-0.6,1.3-1.3,1.3h-8c-0.7,0-1.3-0.6-1.3-1.3H7.4c-1.1,0-1.9,0.9-1.9,1.9
				s0.9,1.9,1.9,1.9h33.1c1.1,0,1.9-0.9,1.9-1.9S41.6,44.3,40.6,44.3z"/>
		</g>
	</g>
	<g id="XMLID_226_">
		<g id="XMLID_195_">
			<path id="XMLID_200_" class="st0" d="M30.6,28h-1.7c-0.1,0-0.3-0.2-0.3-0.4v-1.5c0-1.2-0.9-2.2-2.1-2.2h-8.4
				c-1.2,0-2.1,1-2.1,2.2v14.3c0,1.2,0.9,2.2,2.1,2.2h12.4c1.2,0,2.1-1,2.1-2.2V30.2C32.6,29,31.7,28,30.6,28z M30.8,40.5
				c0,0.2-0.1,0.4-0.3,0.4H18.1c-0.1,0-0.3-0.2-0.3-0.4V26.2c0-0.2,0.1-0.4,0.3-0.4h8.4c0.1,0,0.3,0.2,0.3,0.4v1.5
				c0,1.2,0.9,2.2,2.1,2.2h1.7c0.1,0,0.3,0.2,0.3,0.4L30.8,40.5L30.8,40.5z"/>
			<path id="XMLID_198_" class="st0" d="M19.7,31.2H25c0.6,0,0.9-0.5,0.9-0.9c0-0.6-0.5-0.9-0.9-0.9h-5.4c-0.6,0-0.9,0.5-0.9,0.9
				C18.7,30.8,19.1,31.2,19.7,31.2z"/>
			<path id="XMLID_197_" class="st0" d="M29,36.1h-9.3c-0.6,0-0.9,0.5-0.9,0.9c0,0.6,0.5,0.9,0.9,0.9h9.4c0.6,0,0.9-0.5,0.9-0.9
				C29.9,36.5,29.5,36.1,29,36.1z"/>
			<path id="XMLID_196_" class="st0" d="M29,32.6h-9.3c-0.6,0-0.9,0.5-0.9,0.9c0,0.5,0.5,0.9,0.9,0.9h9.4c0.6,0,0.9-0.5,0.9-0.9
				C30,33.1,29.5,32.6,29,32.6z"/>
		</g>
	</g>
</g>
</svg>